<?xml version="1.0" standalone="no"?>
<!DOCTYPE svg PUBLIC "-//W3C//DTD SVG 20010904//EN"
 "http://www.w3.org/TR/2001/REC-SVG-20010904/DTD/svg10.dtd">
<svg version="1.0" xmlns="http://www.w3.org/2000/svg"
 width="512.000000pt" height="512.000000pt" viewBox="0 0 512.000000 512.000000"
 preserveAspectRatio="xMidYMid meet">
<metadata>
Created by potrace 1.14, written by Peter Selinger 2001-2017
</metadata>
<g transform="translate(0.000000,512.000000) scale(0.100000,-0.100000)"
fill="#000000" stroke="none">
<path d="M2332 5109 c-132 -12 -266 -36 -418 -74 -175 -45 -298 -91 -479 -180
-281 -138 -451 -260 -680 -490 -218 -218 -343 -388 -476 -647 -369 -725 -369
-1591 0 -2316 133 -259 258 -429 476 -647 229 -230 399 -352 680 -490 316
-156 600 -231 962 -257 267 -19 527 6 809 77 175 45 298 91 479 180 281 138
451 260 680 490 218 218 343 388 476 647 369 725 369 1591 0 2316 -133 259
-258 429 -476 647 -229 230 -399 352 -680 490 -181 89 -304 135 -479 180 -298
76 -583 100 -874 74z m1143 -983 c37 -18 125 -99 337 -308 324 -319 338 -338
338 -459 0 -123 -7 -131 -482 -606 -470 -469 -466 -466 -590 -466 -88 0 -153
32 -235 115 l-63 63 108 108 108 108 45 -20 c51 -24 60 -25 114 -10 33 9 87
58 323 292 156 155 290 294 298 309 17 32 18 105 3 145 -13 36 -333 358 -375
378 -40 19 -117 19 -152 1 -15 -8 -154 -142 -309 -298 -234 -236 -283 -290
-292 -323 -15 -54 -14 -63 10 -114 l20 -45 -108 -108 -108 -108 -63 63 c-83
82 -115 147 -115 235 0 124 -3 120 466 590 475 475 483 482 606 482 49 0 79
-6 116 -24z m-368 -1018 c39 -39 46 -53 50 -95 4 -34 0 -59 -10 -79 -27 -50
-948 -962 -980 -970 -58 -14 -108 2 -154 49 -47 46 -63 96 -49 154 5 19 155
176 469 492 254 255 476 472 492 483 23 15 43 18 83 15 48 -3 58 -9 99 -49z
m-942 -303 c28 -13 78 -53 112 -87 l63 -63 -108 -108 -108 -108 -45 20 c-51
24 -60 25 -114 10 -33 -9 -87 -58 -323 -292 -156 -155 -290 -294 -298 -309
-17 -32 -18 -105 -3 -145 13 -36 333 -358 375 -378 40 -19 117 -19 152 -1 15
8 154 142 309 298 234 236 283 290 292 323 15 54 14 63 -10 114 l-20 45 108
108 108 108 63 -63 c83 -82 115 -147 115 -235 0 -124 3 -120 -466 -590 -475
-476 -483 -482 -606 -482 -112 1 -125 10 -450 333 -328 327 -341 344 -341 458
0 123 7 131 482 605 233 232 438 429 456 439 79 39 173 39 257 0z"/>
</g>
</svg>
